<?xml version="1.0" encoding="utf-8" ?><svg xmlns="http://www.w3.org/2000/svg" xmlns:xlink="http://www.w3.org/1999/xlink" width="1024" height="1024" viewBox="0 0 1024 1024"><path fill="#8C6ACC" transform="scale(2.048 2.048)" d="M22.8702 284.258C24.2123 281.56 29.6418 277.536 32.426 276.517C48.7593 270.528 62.8534 281.902 76.6058 288.791C79.7232 290.353 86.0361 287.33 87.9682 284.866C101.484 267.633 96.0808 239.605 94.4855 219.303C93.9696 212.739 93.765 207.64 93.1287 201.237C92.9257 199.091 90.5642 189.355 90.8841 188.541L91.2946 188.387C94.422 190.212 98.5299 198.371 99.9229 201.679L100.341 201.092C102.275 198.34 104.991 195.579 108.01 194.03C110.753 192.622 116.5 190.485 119.53 191.418L119.585 191.742C117.973 193.099 115.373 193.451 113.736 194.548C103.159 201.658 100.651 218.215 104.668 229.555C105.684 233.252 122.091 232.614 123.463 231.559C125.526 229.974 125.67 212.655 125.103 209.39C124.723 207.201 122.855 204.178 123.015 202.887L123.468 202.698C125.123 203.069 126.803 204.693 128.111 205.805C132.009 201.499 135.369 200.1 141.22 199.415C142.558 199.056 145.759 199.006 146.858 199.871C146.446 200.767 145.285 200.721 144.363 200.824C129.313 204.001 131.132 228.532 133.754 239.585C136.02 249.137 138.87 247.197 145.187 250.729L144.957 250.971C143.889 252.073 141.116 254.034 140.788 254.77C137.866 261.323 138.871 273.685 138.565 280.87C138.37 285.103 137.878 289.318 137.093 293.483C143.651 293.448 152.732 294.277 157.565 289.106C163.412 282.851 159.596 270.165 158.092 262.767C157.01 257.442 155.517 252.437 154.65 247.063C153.855 241.035 151.583 236.31 150.213 230.557C147.357 218.564 148.68 204.822 156.878 195.13C157.416 194.489 157.924 194.249 158.725 194.117L159.094 194.333C159.059 196.146 157.713 197.828 157.04 199.528C154.666 205.527 155.27 212.351 157.368 218.292C160.928 214.357 164.759 211.391 170.225 211.126C175.504 210.87 179.554 212.014 183.501 215.621C184.733 216.752 185.84 218.012 186.803 219.379C188.989 214 190.666 207.912 191.249 202.123C191.745 200.821 191.837 200.633 192.753 199.582C195.665 212.697 194.508 224.519 192.656 237.462C192.686 240.387 193.268 243.314 193.472 246.222C193.885 252.075 194.231 258.039 193.579 263.891C192.582 272.839 189.624 281.521 188.352 290.437C188.046 292.585 188.553 297.657 191.822 296.839C193.295 296.484 194.495 294.349 195.115 293.177C195.565 294.288 195.705 294.505 195.812 295.669C194.548 298.996 192.61 301.641 188.649 301.271C183.761 300.814 183.033 293.767 180.142 290.738C171.579 281.765 161.073 292.415 152.702 295.781C147.361 297.983 142.242 299.391 136.347 298.879C136.219 299.908 135.635 303.58 135.978 304.262C137.581 304.84 138.895 304.156 140.477 303.868C148.95 302.324 154.852 296.728 162.635 293.505C164.947 292.29 170.013 291.113 172.38 292.521C179.997 297.053 176.699 311.719 173.142 318C172.254 319.568 171.682 321.293 170.162 321.798C169.392 320.666 171.733 316.224 171.948 314.413C172.573 309.14 173.363 303.838 168.453 300.551C159.182 299.754 152.783 304.16 144.804 307.682C142.152 308.853 137.761 309.746 134.872 310.126C134.945 311.015 134.978 311.908 134.97 312.8C134.959 313.741 134.879 314.722 134.179 315.408L133.668 315.342C132.206 313.796 132.122 312.303 131.658 310.197C129.725 310.644 128.738 310.888 127.299 312.448C124.381 315.734 121.878 322.2 122.035 326.535C122.227 331.86 126.188 331.375 129.457 328.877C131.91 327.003 133.422 326.184 135.122 323.404C136.314 321.457 137.444 319.392 138.726 317.621C138.756 318.606 138.741 319.592 138.68 320.575C138.068 329.343 130.628 343.792 126.275 351.247C124.141 354.903 122.322 358.783 119.143 361.568C120.432 357.526 123.862 351.908 125.9 347.898C128.537 342.711 129.055 340.911 130.644 335.361L130.133 335.59C128.378 336.389 127.813 336.538 125.942 337.055C123.788 336.463 123.27 336.409 121.436 335.195C116.758 325.985 122.167 310.696 131.206 305.843C130.885 303.371 130.812 300.911 130.699 298.422C126.167 299.817 123.263 301.354 120.159 305.281C116.822 309.739 112.298 316.699 114.363 322.522C114.93 324.122 118.062 327.09 116.303 328.877C113.015 328.948 110.021 322.156 109.823 319.276C109.355 312.463 111.787 305.226 116.101 299.969C120.083 295.117 124.719 293.565 130.772 293.023C131.268 279.736 132.256 262.299 128.729 249.45C127.884 246.368 126.549 244.378 123.621 242.85C119.236 240.562 111.006 239.645 106.353 241.187C102.699 245.801 101.425 257.323 102.02 262.889C102.903 269.998 105.807 277.644 113.134 280.228C114.595 280.744 118.376 280.873 118.161 282.483C114.083 287.741 100.476 284.227 100.343 284.367C93.9412 291.096 90.5344 296.842 81.0139 299.631C71.61 297.641 65.7907 288.886 58.1804 283.709C54.5229 281.221 49.5164 279.473 45.2924 278.097C40.9241 276.674 34.8523 278.13 30.8398 280.107C28.1257 281.486 25.4543 284.58 23.3784 286.784C21.3735 289.384 19.4893 292.75 17.2682 294.921C18.3182 291.124 20.082 287.102 22.8702 284.258ZM162.294 229.198C162.737 231.87 163.172 233.902 163.153 236.624C163.136 239.097 162.555 242.945 162.708 245.227C163.262 253.49 167.176 266.14 172.542 272.339C174.219 273.541 174.728 273.747 176.824 274.221C177.757 273.968 179.108 273.639 179.885 273.089C187.012 268.041 187.086 256.116 184.975 248.55C184.29 246.128 183.379 243.777 182.257 241.525C179.979 237.014 176.392 231.844 175.562 226.809C175.398 225.816 176.457 224.112 177.067 223.308L176.895 223.039L176.658 223.025C172.381 224.925 169.29 225.5 166.878 229.974C166.445 230.776 165.778 232.131 164.859 232.09C163.818 231.214 163.129 230.26 162.294 229.198Z"/><path fill="#72728F" transform="scale(2.048 2.048)" d="M17.2682 294.921C18.3182 291.124 20.082 287.102 22.8702 284.258C22.7747 285.501 20.172 288.692 19.4647 290.647C20.9265 289.875 21.9343 286.98 23.3784 286.784C21.3735 289.384 19.4893 292.75 17.2682 294.921Z"/><path fill="#504B89" transform="scale(2.048 2.048)" d="M141.22 199.415C142.558 199.056 145.759 199.006 146.858 199.871C146.446 200.767 145.285 200.721 144.363 200.824L143.897 199.905C142.918 199.274 142.506 199.463 141.22 199.415Z"/><path fill="#8C6ACC" transform="scale(2.048 2.048)" d="M281.471 312.494C279.696 313.712 276.501 316.778 275.092 316.652C274.453 315.616 274.734 314.768 274.971 313.624C276.761 304.983 282.405 303.353 288.351 299.001C299.533 290.815 314.737 297.74 326.734 292.246C335.99 288.006 343.914 274.122 351.201 267.029C358.775 259.405 366.421 252.351 373.267 244.156C380.222 235.564 383.789 220.095 383.055 209.162C382.4 199.394 376.841 187.33 372.132 178.792C370.679 176.245 365.285 170.203 365.744 168.028C367.709 167.1 370.841 171.292 371.986 172.681C379.98 182.477 386.14 193.636 390.169 205.621C391.118 208.372 391.767 210.519 392.514 213.529C393.704 218.329 394.113 228.739 398.893 231.321C400.636 232.263 404.161 231.649 406.063 231.07L406.584 231.218L406.65 231.603C404.984 232.883 401.693 235.123 400.485 236.849C396.588 242.734 394.644 250.622 393.21 257.483C392.615 260.331 393.797 262.813 394.948 265.371C398.782 273.893 394.11 286.446 387.518 292.379C386.302 293.474 381.29 295.565 380.085 294.111C381.332 292.029 383.613 291.958 385.064 290.631C388.042 287.908 388.807 282.471 387.94 278.663C385.913 269.761 377.811 277.96 377.105 282.799C376.587 283.302 376.876 283.216 376.288 283.27L375.316 282.401C376.341 277.472 379.613 271.98 381.661 267.335C382.852 264.634 383.513 262.782 384.421 259.987C376.17 259.601 368.897 259.782 362.445 265.655C354.913 272.511 350.816 281.404 344.289 288.963C342.522 291.009 339.707 292.743 337.488 294.231C330.662 298.988 323.408 298.804 315.47 298.669C312.564 298.632 309.331 299.46 306.521 299.722C295.047 300.793 289.473 308.194 288.946 319.462C288.555 327.84 294.988 335.831 296.921 343.968C297.633 346.961 302.894 361.481 302.231 363.513L301.827 363.684C300.002 362.455 298.815 355.902 297.899 353.524C295.857 348.227 293.373 343.501 290.47 338.659C287.593 333.86 283.262 332.127 282.414 326.658C281.667 321.841 281.608 317.315 281.471 312.494ZM378.062 252.046C382.265 252.21 382.483 252.164 386.196 253.601C386.31 249.706 388.602 234.053 387.836 232.162C387 234.293 386.627 236.154 385.734 238.335C383.461 243.889 379.708 247.489 375.75 251.816C376.338 252.185 377.323 252.059 378.062 252.046Z"/><path fill="#8C6ACC" transform="scale(2.048 2.048)" d="M300.915 130.597C301.437 130.89 301.883 131.15 302.046 131.776C302.962 135.504 303.264 139.478 303.563 143.332C304.84 159.817 306.237 176.782 304.288 193.246C303.569 199.317 300.497 204.652 298.146 210.08C299.303 213.092 301.181 216.143 302.473 219.249C305.726 227.065 306.049 235.489 304.364 243.594C302.969 250.307 292.711 264.924 286.968 268.28C288.267 265.164 293.026 259.692 295.03 255.893C299.514 247.392 301.629 240.105 298.887 230.54C298.199 227.767 296.291 224.275 293.513 223.153C289.687 221.609 287.813 221.435 286.723 225.645C286.015 228.043 285.542 230.818 285.219 233.323C283.192 248.473 274.862 261.791 270.222 276.308C266.711 287.296 277.545 294.61 276.563 297.708C275.609 298.463 273.539 298.513 272.23 298.654C264.551 306.483 269.577 326.615 270.976 336.36C271.446 339.631 272.901 344.204 272.758 347.502L272.473 347.76L271.923 347.556C271.037 346.251 269.079 337.689 268.578 335.619C266.167 326.46 263.573 303.509 256.783 297.992C254.598 297.936 251.112 298.822 249.669 298.459L249.519 298.097C250.82 295.855 254.109 293.454 255.215 291.333C255.663 290.473 256.869 287.17 257.298 286.096C258.804 282.325 260.368 278.577 261.99 274.855C262.971 272.656 264.542 270.021 265.675 267.83C267.652 263.987 269.479 260.069 271.152 256.085C274.578 247.909 277.783 239.082 276.419 230.089C275.958 227.052 275.325 221.841 271.896 220.686C269.354 219.83 267.994 220.181 265.748 221.268C264.629 222.806 264.566 223.237 264.013 224.955C263.202 227.475 263.177 239.12 260.617 239.999L260.295 239.72C260.325 237.762 261.126 234.243 261.413 232.022C262.068 226.97 260.438 221.761 257.309 217.793C256.498 216.765 255.275 215.689 254.265 214.471C261.883 206.285 259.41 199.255 254.877 190.06C254.383 189.057 252.671 186.292 253.847 185.519C255.044 185.835 265.47 200.919 267.965 203.684C269.049 204.889 270.284 205.949 271.639 206.838C273.961 208.361 277.686 209.887 280.326 209.022C285.287 207.395 288.933 204.545 291.785 200.227C303.249 182.875 300.097 159.317 300.416 139.404C300.45 137.233 299.967 132.127 300.915 130.597Z"/><path fill="#8C6ACC" transform="scale(2.048 2.048)" d="M363.99 199.929C367.533 202.715 361.839 220.472 360.458 224.802C357.914 232.785 352.367 241.688 344.626 245.42C346.512 240.212 347.701 237.485 342.613 233.902C341.449 234.482 338.905 236.659 337.956 236.37C336.94 233.431 344.848 227.811 336.631 220.607C334.294 220.118 333.393 220.053 331.119 220.307C327.564 222.672 324.124 230.373 322.432 234.414C318.678 243.374 314.193 252.202 310.983 261.373C310.288 263.36 310.144 266.721 311.163 268.61C311.994 270.15 314.034 270.456 315.588 270.831C319.11 269.744 322.779 268.565 325.666 266.18C327.914 264.322 333.313 260.008 332.882 256.781C331.692 255.379 330.365 256.248 328.444 255.53L328.264 255.087L328.553 254.445C331.053 252.648 337.014 254.686 339.424 256.115C341.451 254.971 343.538 253.935 345.675 253.012C348.236 251.886 359.268 248.064 361.741 249.023L361.8 249.366C361.014 250.42 357.269 251.564 355.966 252.07C347.224 255.458 340.278 258.373 334.685 266.208C332.488 269.285 324.899 275.758 321.542 277.572C315.365 281.422 309.287 282.136 304.041 276.108C297.481 282.459 298.488 284.137 296.002 291.766L295.896 292.084C294.536 287.016 295.144 279.798 297.922 275.195C299.001 273.407 303.068 269.468 302.251 267.498C298.299 267.855 293.832 277.244 292.349 278.06L292.064 277.741C291.799 270.392 298.872 262.478 304.109 258.176C304.372 257.96 305.071 257.458 305.209 257.166C311.353 244.132 323.311 222.622 308.74 211.067C306.559 210.917 305.057 211.11 302.914 211.282C302.333 211.329 302.05 210.929 301.679 210.561C301.038 206.924 308.046 205.041 310.773 204.554C315.261 203.751 318.714 205.405 322.198 207.924C333.351 194.532 341.722 206.824 348.564 217.231C350.073 219.526 353.071 230.534 353.208 230.627C357.429 228.146 361.905 211.253 362.731 206.237C362.972 204.773 363.312 200.895 363.99 199.929Z"/><path fill="#8C6ACC" transform="scale(2.048 2.048)" d="M476.163 189.145C477.131 189.33 476.815 189.078 477.333 189.679C477.575 192.012 473.128 196.347 471.492 198.381C463.57 208.229 459.574 215.235 458.24 228.072C457.484 233.584 456.357 238.994 453.209 243.701C452.56 244.672 451.842 246.369 450.631 246.026C450.048 244.728 452.317 241.167 452.909 239.58C454.678 235.112 455.75 229.969 454.615 225.247C453.727 221.555 446.196 221.306 443.551 222.432C442.319 223.814 440.805 231.796 440.144 234.434C437.602 244.582 430.57 253.052 427.934 262.842C425.844 270.606 438.368 269.566 439.978 271.724C439.576 272.153 434.668 273.527 433.591 274.021C424.235 278.316 426.96 291.49 429.954 299.028C430.593 300.636 432.093 303.348 431.482 305.004L430.998 305.094C430.423 304.761 429.788 304.013 429.514 303.405C425.94 295.488 423.272 285.797 417.403 279.272L415.347 277.583C411.449 277.012 409.949 277.481 406.129 277.648C405.369 277.681 405.35 277.6 405.036 277.246C405.425 275.756 412.199 271.804 413.686 270.21C415.599 268.16 417.204 266.289 418.668 263.86C420.585 260.904 421.891 257.25 423.654 254.252C429.911 243.611 433.13 235.222 433.539 222.719C431.786 222.367 429.228 221.52 427.513 220.94C416.74 223.954 415.545 230.706 409.078 238.931C408.613 239.522 408.438 239.488 407.795 239.639C407.241 239.252 407.243 238.995 407.621 238.271C410.876 232.046 414.968 223.561 417.633 217.362C419.022 214.128 410.655 206.926 409.974 203.492C411.369 202.255 415.981 207.019 418.133 207.699C424.671 209.766 431.552 209.048 438.289 210.067C439.848 210.303 442.253 209.802 443.833 209.688C452.682 209.049 458.657 204.257 465.192 198.8C468.94 195.686 472.598 192.467 476.163 189.145Z"/><path fill="#8C6ACC" transform="scale(2.048 2.048)" d="M248.415 195.146C248.651 194.54 248.628 194.387 249.11 193.984L250.166 194.517L250.213 194.887C250.558 197.501 251.327 200.19 251.903 202.769C253.788 211.212 253.713 219.31 251.407 227.691C250.898 229.539 249.703 231.537 249.575 233.49C249.59 238.439 251.832 241.891 249.374 246.833C247.469 241.437 247.126 237.525 241.56 234.497C240.09 234.387 235.314 235.346 235.075 235.243C235.354 233.405 236.615 231.384 237.137 229.383C236.415 226.225 236.019 223.376 233.001 221.501C231.091 220.315 228.169 220.013 226.021 220.599C223.728 221.215 221.798 222.763 220.7 224.868C217.374 231.176 223.831 239.944 229.556 242.516C233.599 244.331 238.409 245.425 240.995 249.377C245.491 256.245 243.126 265.813 239.75 272.748C236.791 278.825 227.93 291.544 219.61 287.161C214.996 284.557 211.854 274.687 210.385 269.719C203.027 276.352 202.249 281.971 199.681 291.319C199.353 292.515 199.136 295.376 198.669 296.159L198.328 296.102C197.45 294.762 199.315 282.142 199.912 279.668C202.18 270.252 204.271 261.29 214.756 259.125C215.061 259.267 215.648 259.495 215.607 259.934C214.286 274.064 221.871 292.255 233.953 271.984C239.445 262.769 235.516 253.361 224.913 250.049C215.602 246.264 210.885 236.625 211.789 227.064C212.007 221.922 214.869 213.896 209.736 210.81C208.392 210.016 205.409 209.392 204.315 208.237L204.395 207.918C206.164 207.153 207.539 207.713 209.277 207.917C213.534 208.419 216.475 210.172 219.384 213.271C232.826 207.879 243.219 214.784 245.158 228.8C249.94 218.481 251.027 211.941 249.458 200.348C249.209 198.509 248.728 196.937 248.415 195.146Z"/><path fill="#8C6ACC" transform="scale(2.048 2.048)" d="M41.5297 204.999C38.7502 203.399 29.245 196.315 30.2488 192.782C30.4542 192.638 30.6596 192.494 30.865 192.349C33.8217 194.011 37.2598 196.211 40.7778 196.085C46.3519 195.885 49.9134 192.053 54.5841 190.509C58.4872 189.219 63.7287 190.732 68.0634 188.242C70.3217 187.086 72.3267 185.63 74.3563 184.135C75.5872 183.228 78.0513 180.425 79.3802 180.262L79.747 180.659C79.6395 182.905 71.2228 192.256 69.2016 195.304C72.3482 200.734 73.5473 204.114 73.757 210.351C73.3625 211.515 73.5069 211.994 72.1365 212.119C70.2538 205.052 68.4664 200.08 61.0318 197.655C45.5844 201.352 42.6871 220.174 45.3567 233.404C46.0508 236.844 47.4928 240.22 48.7224 243.469C51.1036 249.761 54.6188 255.672 60.7706 258.868C67.7852 262.584 72.7047 255.09 73.9709 249.115C74.3473 247.367 74.466 245.424 75.1007 243.756C75.2911 243.263 75.4843 243.257 75.9229 243.114C76.0444 243.222 76.3866 243.502 76.4099 243.645C77.5714 250.74 76.5773 262.896 69.3352 266.547C58.083 272.219 48.6046 259.996 44.3346 251.26C37.2467 236.837 36.2364 220.173 41.5297 204.999Z"/><path fill="#8C6ACC" transform="scale(2.048 2.048)" d="M461.253 160.86L461.856 161.24C463.03 163.659 459.194 177.795 458.306 180.728C463.307 178.258 468.698 173.487 471.66 168.746C472.549 167.325 473.492 164.803 474.65 164.021L475.073 164.127C475.267 164.831 475.183 165.205 475.022 165.902C472.855 174.958 465.236 188.356 454.961 189.791C449.495 190.553 436.046 189.642 430.581 188.268C428.601 189.784 427.6 190.758 426.054 192.681C423.462 195.716 422.518 198.246 420.158 201.166C419.893 201.495 419.861 201.408 419.361 201.38C417.778 198.492 421.502 189.866 422.917 186.988C419.391 186.918 417.346 186.912 414.379 189.111C413.353 189.871 411.678 191.549 410.508 191.488L410.32 191.011C410.521 189.57 412.294 186.038 413.287 184.895C423.411 173.236 438.501 182.383 450.645 181.822C453.633 181.684 459.068 164.013 461.253 160.86Z"/><path fill="#8C6ACC" transform="scale(2.048 2.048)" d="M414.287 145.261C414.743 145.243 415.157 145.291 415.612 145.325C416.441 145.866 416.205 145.503 416.411 146.405C415.857 148.328 413.627 149.692 412.149 151.161C402.274 160.971 397.487 178.871 396.968 192.507C396.769 197.725 400.52 219.253 404.121 223.997C405.035 225.201 407.478 224.138 408.532 225.203C408.39 228.568 404.049 227.068 402.238 226.164C398.994 224.544 397.523 220.211 396.584 216.948C395.625 214.394 394.932 210.832 394.282 208.123C392.309 199.693 389.715 191.56 385.24 184.086C384.004 182.023 378.997 177.503 380.101 175.348C383.904 173.877 389.242 180.515 391.314 183.075L391.593 183.048C392.188 181.434 392.165 178.248 392.611 176.368C393.868 171.066 395.901 164.878 398.507 160.092C401.653 154.315 407.811 147.204 414.287 145.261Z"/><path fill="#8C6ACC" transform="scale(2.048 2.048)" d="M27.4565 327.605C27.8992 321.344 28.0437 316.893 27.4353 310.702C27.1055 307.347 25.4497 304.246 25.2509 301.948C24.551 293.854 32.5137 282.791 41.2529 283.735C51.3879 284.829 55.7175 293.978 63.6296 299.116C66.7235 301.122 71.597 301.022 73.5814 303.708C79.3916 311.57 80.7582 320.338 80.0316 329.915C79.9766 330.639 79.8823 330.943 79.575 331.531L79.1818 331.735C77.747 330.791 78.0671 326.828 77.6026 325.013C76.4139 320.368 74.3398 316.933 71.8962 312.913C70.2419 316.469 63.3804 327.276 59.8914 328.629L59.4094 328.475C58.7692 326.373 63.0115 321.547 63.9817 319.45C65.4612 316.253 66.5231 312.974 67.5205 309.614C65.4003 307.94 60.5901 304.448 59.2028 302.809C54.8797 297.63 52.5186 291.206 45.9425 288.28C43.9019 287.372 42.8347 286.984 40.3043 287.106C35.9503 287.317 31.6724 293.64 30.6393 297.432C29.8265 300.416 31.204 306.408 30.7274 309.648C30.4898 316.139 29.5829 322.231 28.8844 328.563L27.4565 327.605Z"/><path fill="#8C6ACC" transform="scale(2.048 2.048)" d="M316.39 156.921C318.472 157.742 321.478 160.952 322.972 162.668C326.949 167.23 330.469 172.171 333.48 177.421C337.335 184.113 346.522 206.316 352.156 209.728C353.259 210.396 353.893 210.263 355.072 209.974L355.429 209.882C356.194 210.884 356.257 212.546 355.536 213.622C352.315 215.67 348.635 211.718 346.948 209.305C341.06 201.519 338.286 196.233 328.817 193.294C325.273 194.617 325.467 194.872 323.58 198.033C323.236 198.608 322.787 198.919 322.131 198.996C319.936 196.782 321.756 188.305 323.165 185.71C324.842 182.622 326.153 182.744 329.287 181.705C329.84 180.494 322.626 168.659 321.716 166.898C320.225 164.013 315.931 160.262 316.39 156.921Z"/><path fill="#8C6ACC" transform="scale(2.048 2.048)" d="M292.567 166.459C295.358 169.337 291.946 183.405 291.081 186.942C289.323 194.13 283.858 203.028 275.116 200.326C270.332 198.847 263.16 192.151 260.918 187.899C260.331 187.148 259.047 185.173 259.473 184.247C260.977 184.29 263.686 188.172 265.485 189.131C268.736 190.803 272.337 192.492 276.06 192.592C283.884 192.804 276.021 183.268 277.767 181.266C278.387 181.524 279.017 181.895 279.6 182.245C285.918 186.008 289.373 177.965 290.687 173.159C291.246 171.114 291.566 168.236 292.567 166.459Z"/><path fill="#8C6ACC" transform="scale(2.048 2.048)" d="M81.434 260.373C81.495 257.621 81.826 254.807 81.9187 252.012C82.0742 246.52 81.646 241.026 80.6413 235.624C79.6818 230.686 79.4529 227.834 73.3884 230.168C69.7067 231.613 66.3327 233.744 63.4454 236.448C61.5414 238.206 58.7289 241.316 56.503 242.292L55.86 241.866C58.0971 235.715 74.3066 220.803 81.1892 219.091C84.2753 218.323 84.2875 228.641 84.3505 230.422C85.0939 228.817 86.2325 225.802 88.0754 225.364L88.3893 225.763C89.2305 230.516 85.3918 239.38 84.6369 244.097C83.7843 249.423 83.8078 254.696 82.8986 260.085L81.434 260.373Z"/><path fill="#8C6ACC" transform="scale(2.048 2.048)" d="M210.272 280.649C211.514 281.272 214.814 289.512 219.634 290.962C226.69 293.084 229.665 289.375 233.821 284.32C234.799 283.13 235.835 281.761 237.183 281.057L237.541 281.188C237.948 284.478 231.649 294.229 228.713 296.115C223.625 299.384 222.029 298.49 219.589 304.813C217.755 309.818 216.988 317.227 219.351 322.385C220.011 323.827 223.485 325.407 222.213 327.415L221.607 327.498C212.613 323.998 214.128 306.04 215.777 298.693C213.806 295.02 208.525 284.499 210.272 280.649Z"/><path fill="#8C6ACC" transform="scale(2.048 2.048)" d="M35.96 208.86C36.5087 209.117 36.2529 208.956 36.6371 209.565C36.8432 211.546 34.9167 214.364 34.2929 216.374C30.6756 227.964 33.7018 240 37.4851 251.122C38.2612 253.404 41.7175 259.356 40.807 261.459L40.3793 261.357C38.3654 259.331 31.6056 242.679 30.8848 239.325C30.0959 236.463 29.5631 234.279 29.2404 231.316C29.1073 230.094 29.1715 227.148 28.7688 226.374C25.0835 225.443 17.2962 230.095 14.9796 232.845C14.0259 233.977 12.0809 236.91 11.1358 237.176C10.3654 236.758 10.6215 237.061 10.3321 236.244C10.8273 232.527 19.6662 222.921 23.294 220.93C24.6142 220.205 29.3772 217.642 29.8147 217.097C31.9642 214.421 33.6395 211.531 35.96 208.86Z"/><path fill="#504B89" transform="scale(2.048 2.048)" d="M377.105 282.799C376.596 285.293 377.074 289.3 375.918 290.446L375.569 290.185C374.979 288.618 375.16 284.144 375.316 282.401L376.288 283.27C376.876 283.216 376.587 283.302 377.105 282.799Z"/><path fill="#504B89" transform="scale(2.048 2.048)" d="M195.115 293.177C195.286 291.741 195.348 290.174 196.049 288.933L196.419 288.821C197.235 290.412 196.266 293.996 195.812 295.669C195.705 294.505 195.565 294.288 195.115 293.177Z"/><path fill="#504B89" transform="scale(2.048 2.048)" d="M81.434 260.373L82.8986 260.085C82.7488 261.742 82.6861 263.641 82.0837 265.155L81.7937 265.368C81.0592 263.83 81.4651 262.057 81.434 260.373Z"/><path fill="#7D71D2" transform="scale(2.048 2.048)" d="M248.415 195.146C248.119 193.807 247.321 191.428 248.122 190.287C249.227 190.762 249.822 193.396 250.166 194.517L249.11 193.984C248.628 194.387 248.651 194.54 248.415 195.146Z"/><path fill="#504B89" transform="scale(2.048 2.048)" d="M72.1365 212.119C73.5069 211.994 73.3625 211.515 73.757 210.351C73.7346 211.854 73.9059 214.471 72.9397 215.576C72.3729 215.111 72.3324 214.267 72.2586 213.54C72.212 213.067 72.1713 212.593 72.1365 212.119Z"/><path fill="#504B89" transform="scale(2.048 2.048)" d="M27.4565 327.605L28.8844 328.563C28.6851 329.687 28.614 330.859 27.9529 331.732L27.6155 331.65C27.2109 330.265 27.3847 329.058 27.4565 327.605Z"/><path fill="#504B89" transform="scale(2.048 2.048)" d="M191.249 202.123C191.241 200.229 191.139 199.205 191.691 197.36L192.028 197.208C192.592 197.856 192.613 198.705 192.753 199.582C191.837 200.633 191.745 200.821 191.249 202.123Z"/></svg>